<svg width="400" height="400" viewBox="0 0 400 400" fill="none" xmlns="http://www.w3.org/2000/svg">
<path d="M147.722 263.327C151.872 261.777 155.622 260.417 159.342 258.987C168.182 255.577 177.352 254.207 186.762 254.837C190.202 255.067 192.342 253.987 194.012 250.987C199.042 241.977 204.442 233.167 209.372 224.107C216.232 211.517 223.232 199.037 232.522 188.027C243.482 175.027 256.702 165.547 273.882 163.007C284.582 161.427 295.272 162.077 304.962 167.567C316.652 174.197 323.132 184.477 324.082 197.877C324.922 209.717 322.142 220.667 314.552 230.117C314.352 230.357 314.322 230.727 314.012 231.607C315.102 232.267 316.262 233.077 317.512 233.707C332.752 241.297 340.822 253.807 341.822 270.557C342.442 280.977 339.032 290.627 333.032 299.157C324.912 310.707 313.032 316.387 299.712 319.457C284.962 322.857 270.272 321.397 255.712 318.197C247.322 316.357 240.972 311.977 238.942 299.697C236.282 283.587 237.112 267.467 237.472 251.357C237.672 242.257 239.152 233.167 240.312 224.107C240.642 221.527 241.612 218.947 242.682 216.547C244.362 212.757 247.552 211.257 251.622 211.567C255.612 211.867 257.912 214.197 259.162 217.827C260.742 222.397 260.132 227.047 259.822 231.697C259.752 232.687 259.332 233.657 259.302 234.637C258.922 246.277 258.292 257.917 258.352 269.557C258.382 276.007 259.422 282.467 260.312 288.887C261.102 294.557 264.352 297.797 270.072 298.697C281.972 300.577 293.632 300.107 304.602 294.347C314.862 288.957 320.562 277.477 317.992 266.207C316.042 257.667 309.052 250.347 297.372 251.257C293.312 251.577 289.652 252.957 285.952 254.577C282.812 255.957 279.402 257.117 276.022 257.457C271.282 257.937 267.002 255.007 265.582 251.247C263.892 246.777 265.262 240.937 269.412 238.307C273.592 235.657 278.152 233.527 282.742 231.637C289.772 228.737 295.362 224.277 299.332 217.827C302.262 213.067 303.932 207.877 304.132 202.257C304.522 191.677 295.162 182.787 285.142 182.347C273.062 181.817 263.102 186.107 253.852 193.277C246.212 199.197 240.532 206.777 235.212 214.617C226.612 227.287 218.392 240.217 209.942 252.987C202.582 264.107 194.722 274.817 185.242 284.297C179.202 290.337 172.872 295.897 165.362 300.037C164.082 300.747 162.882 301.597 161.042 302.747C162.512 303.527 163.372 304.187 164.352 304.487C176.392 308.127 187.402 305.347 197.532 298.607C204.822 293.757 210.502 287.197 215.512 280.067C216.472 278.707 217.272 277.197 218.412 276.007C219.532 274.827 220.862 273.607 222.342 273.067C223.592 272.617 225.722 272.567 226.492 273.327C227.472 274.287 227.802 276.247 227.792 277.777C227.792 279.007 226.992 280.307 226.292 281.427C220.202 291.287 212.982 300.267 203.312 306.777C188.812 316.547 173.152 318.387 156.682 312.187C150.762 307.807 144.192 308.887 137.542 309.707C123.832 311.407 111.142 308.257 99.412 301.067C92.812 297.017 87.042 292.027 82.572 285.667C80.242 282.347 76.862 280.697 73.312 279.177C66.512 276.267 60.412 272.307 55.112 267.127C43.472 255.757 37.112 241.707 34.292 225.927C33.322 220.537 32.372 215.027 32.502 209.607C32.702 201.657 33.442 193.667 34.722 185.817C37.662 167.807 46.042 152.047 56.972 137.797C65.622 126.517 76.622 117.497 88.552 109.687C108.372 96.7171 129.762 87.1671 152.662 81.3271C177.892 74.8971 201.142 79.9271 222.112 95.2971C224.902 97.3471 227.372 99.9371 229.632 102.587C234.142 107.877 234.722 116.497 228.942 121.497C225.782 124.227 222.152 125.447 218.322 124.007C214.962 122.737 211.692 120.877 208.842 118.687C202.472 113.787 195.932 109.307 188.252 106.667C177.832 103.087 167.352 103.267 156.872 106.147C141.642 110.337 130.022 119.737 120.512 132.017C109.972 145.617 103.702 161.037 101.342 178.027C99.352 192.377 100.292 206.607 104.742 220.417C107.522 229.027 111.792 236.987 118.002 243.677C119.742 245.557 122.082 247.327 124.482 248.067C133.022 250.707 140.052 255.487 146.092 261.927C146.542 262.407 147.092 262.777 147.722 263.307V263.327ZM98.962 116.227C98.672 115.987 98.382 115.747 98.092 115.507C93.982 118.277 89.812 120.957 85.762 123.817C74.912 131.487 65.762 140.857 58.942 152.277C47.252 171.877 45.982 192.457 54.282 213.557C58.902 225.307 66.852 234.217 78.622 239.357C80.162 240.027 81.752 241.277 83.422 240.187C66.512 195.947 71.662 154.737 98.952 116.227H98.962ZM137.702 267.977C136.202 266.397 135.322 265.177 134.172 264.317C129.332 260.687 124.062 257.727 118.062 256.737C110.222 255.427 102.282 254.717 94.402 253.597C87.652 252.627 80.972 251.277 74.712 248.417C60.732 242.027 51.022 231.567 45.242 217.377C44.552 215.677 43.772 214.027 43.032 212.347C43.062 225.447 46.332 237.547 52.852 248.577C58.022 257.307 64.972 264.327 74.332 268.777C88.822 275.667 103.952 277.147 119.552 274.227C125.552 273.097 131.412 271.277 137.692 267.987L137.702 267.977ZM95.982 285.547C99.682 289.777 103.282 292.427 107.282 294.427C117.192 299.377 127.642 301.387 138.702 299.627C146.022 298.457 152.852 296.097 159.082 291.997C168.552 285.777 175.972 277.537 182.562 268.467C183.192 267.597 183.502 266.487 184.312 264.717C177.902 265.387 172.022 264.697 166.542 266.747C158.912 269.597 151.382 272.737 143.982 276.147C130.322 282.437 116.122 285.957 101.032 285.547C99.722 285.517 98.402 285.547 95.982 285.547Z" fill="#D14D72"/>
<path d="M357.062 174.097C356.162 176.567 355.662 177.887 355.192 179.227C352.452 187.047 348.002 193.847 342.332 199.797C340.592 201.627 338.062 202.907 335.662 203.867C333.152 204.867 331.562 203.587 331.162 200.907C330.692 197.767 332.182 195.457 334.412 193.487C340.872 187.777 344.772 180.427 346.952 172.297C350.612 158.597 347.792 145.957 339.632 134.427C334.342 126.957 327.372 121.367 319.802 116.417C300.722 103.937 279.732 96.2571 257.462 92.0071C250.632 90.7071 243.622 90.3871 236.702 89.5471C234.742 89.3071 232.722 89.0771 230.882 88.4171C229.032 87.7471 228.042 86.1271 228.292 84.0371C228.562 81.8271 229.722 80.1671 231.972 79.8871C234.272 79.5971 236.642 79.5271 238.942 79.7671C262.052 82.2171 284.532 87.0271 305.642 97.2471C318.002 103.227 329.652 110.277 339.982 119.287C351.232 129.107 359.272 141.217 363.902 155.507C367.402 166.307 368.152 177.477 367.022 188.587C364.992 208.557 354.952 223.837 337.882 234.447C337.602 234.627 337.332 234.837 337.032 234.977C334.272 236.277 331.592 235.847 330.302 233.917C328.722 231.547 329.152 228.987 331.722 226.887C334.302 224.787 337.132 223.007 339.682 220.877C349.862 212.397 355.672 201.517 357.172 188.357C357.552 185.057 357.822 181.747 357.972 178.427C358.022 177.377 357.542 176.307 357.042 174.097H357.062Z" fill="#D14D72"/>
<path d="M269.082 211.697C272.532 214.087 275.632 217.407 279.862 216.417C283.392 215.597 286.632 213.497 290.202 211.877C291.652 212.807 291.462 214.287 290.512 215.537C289.532 216.837 288.322 218.067 286.972 218.967C282.102 222.227 272.502 220.837 268.582 216.437C267.232 214.927 266.422 213.407 269.082 211.687V211.697Z" fill="#D14D72"/>
<path d="M274.592 204.237C270.882 201.257 267.422 201.567 264.082 203.787C262.542 201.177 263.482 199.537 265.182 198.267C267.322 196.667 269.702 196.227 272.172 197.597C274.352 198.817 275.782 200.407 274.592 204.237Z" fill="#D14D72"/>
<path d="M295.272 203.357C293.272 202.367 291.712 201.597 289.882 200.697C288.572 201.297 287.122 201.957 285.572 202.657C283.492 201.127 284.162 199.537 285.402 198.077C286.922 196.277 290.742 195.897 293.222 197.157C295.462 198.287 295.992 199.607 295.272 203.367V203.357Z" fill="#D14D72"/>
</svg>
