<svg width="336" height="243" viewBox="0 0 336 243" fill="none" xmlns="http://www.w3.org/2000/svg">
<g clip-path="url(#clip0_18_30)">
<path d="M115.24 184.71C119.39 183.16 123.14 181.8 126.86 180.37C135.7 176.96 144.87 175.59 154.28 176.22C157.72 176.45 159.86 175.37 161.53 172.37C166.56 163.36 171.96 154.55 176.89 145.49C183.75 132.9 190.75 120.42 200.04 109.41C211 96.41 224.22 86.93 241.4 84.39C252.1 82.81 262.79 83.46 272.48 88.95C284.17 95.58 290.65 105.86 291.6 119.26C292.44 131.1 289.66 142.05 282.07 151.5C281.87 151.74 281.84 152.11 281.53 152.99C282.62 153.65 283.78 154.46 285.03 155.09C300.27 162.68 308.34 175.19 309.34 191.94C309.96 202.36 306.55 212.01 300.55 220.54C292.43 232.09 280.55 237.77 267.23 240.84C252.48 244.24 237.79 242.78 223.23 239.58C214.84 237.74 208.49 233.36 206.46 221.08C203.8 204.97 204.63 188.85 204.99 172.74C205.19 163.64 206.67 154.55 207.83 145.49C208.16 142.91 209.13 140.33 210.2 137.93C211.88 134.14 215.07 132.64 219.14 132.95C223.13 133.25 225.43 135.58 226.68 139.21C228.26 143.78 227.65 148.43 227.34 153.08C227.27 154.07 226.85 155.04 226.82 156.02C226.44 167.66 225.81 179.3 225.87 190.94C225.9 197.39 226.94 203.85 227.83 210.27C228.62 215.94 231.87 219.18 237.59 220.08C249.49 221.96 261.15 221.49 272.12 215.73C282.38 210.34 288.08 198.86 285.51 187.59C283.56 179.05 276.57 171.73 264.89 172.64C260.83 172.96 257.17 174.34 253.47 175.96C250.33 177.34 246.92 178.5 243.54 178.84C238.8 179.32 234.52 176.39 233.1 172.63C231.41 168.16 232.78 162.32 236.93 159.69C241.11 157.04 245.67 154.91 250.26 153.02C257.29 150.12 262.88 145.66 266.85 139.21C269.78 134.45 271.45 129.26 271.65 123.64C272.04 113.06 262.68 104.17 252.66 103.73C240.58 103.2 230.62 107.49 221.37 114.66C213.73 120.58 208.05 128.16 202.73 136C194.13 148.67 185.91 161.6 177.46 174.37C170.1 185.49 162.24 196.2 152.76 205.68C146.72 211.72 140.39 217.28 132.88 221.42C131.6 222.13 130.4 222.98 128.56 224.13C130.03 224.91 130.89 225.57 131.87 225.87C143.91 229.51 154.92 226.73 165.05 219.99C172.34 215.14 178.02 208.58 183.03 201.45C183.99 200.09 184.79 198.58 185.93 197.39C187.05 196.21 188.38 194.99 189.86 194.45C191.11 194 193.24 193.95 194.01 194.71C194.99 195.67 195.32 197.63 195.31 199.16C195.31 200.39 194.51 201.69 193.81 202.81C187.72 212.67 180.5 221.65 170.83 228.16C156.33 237.93 140.67 239.77 124.2 233.57C118.28 229.19 111.71 230.27 105.06 231.09C91.35 232.79 78.66 229.64 66.93 222.45C60.33 218.4 54.56 213.41 50.09 207.05C47.76 203.73 44.38 202.08 40.83 200.56C34.03 197.65 27.93 193.69 22.63 188.51C10.99 177.14 4.63003 163.09 1.81003 147.31C0.840035 141.92 -0.109965 136.41 0.0200347 130.99C0.220035 123.04 0.960035 115.05 2.24003 107.2C5.18003 89.19 13.56 73.43 24.49 59.18C33.14 47.9 44.14 38.88 56.07 31.07C75.89 18.1 97.28 8.55001 120.18 2.71001C145.41 -3.71999 168.66 1.31001 189.63 16.68C192.42 18.73 194.89 21.32 197.15 23.97C201.66 29.26 202.24 37.88 196.46 42.88C193.3 45.61 189.67 46.83 185.84 45.39C182.48 44.12 179.21 42.26 176.36 40.07C169.99 35.17 163.45 30.69 155.77 28.05C145.35 24.47 134.87 24.65 124.39 27.53C109.16 31.72 97.54 41.12 88.03 53.4C77.49 67 71.22 82.42 68.86 99.41C66.87 113.76 67.81 127.99 72.26 141.8C75.04 150.41 79.31 158.37 85.52 165.06C87.26 166.94 89.6 168.71 92 169.45C100.54 172.09 107.57 176.87 113.61 183.31C114.06 183.79 114.61 184.16 115.24 184.69V184.71ZM66.48 37.61C66.19 37.37 65.9 37.13 65.61 36.89C61.5 39.66 57.33 42.34 53.28 45.2C42.43 52.87 33.28 62.24 26.46 73.66C14.77 93.26 13.5 113.84 21.8 134.94C26.42 146.69 34.37 155.6 46.14 160.74C47.68 161.41 49.27 162.66 50.94 161.57C34.03 117.33 39.18 76.12 66.47 37.61H66.48ZM105.22 189.36C103.72 187.78 102.84 186.56 101.69 185.7C96.85 182.07 91.58 179.11 85.58 178.12C77.74 176.81 69.8 176.1 61.92 174.98C55.17 174.01 48.49 172.66 42.23 169.8C28.25 163.41 18.54 152.95 12.76 138.76C12.07 137.06 11.29 135.41 10.55 133.73C10.58 146.83 13.85 158.93 20.37 169.96C25.54 178.69 32.49 185.71 41.85 190.16C56.34 197.05 71.47 198.53 87.07 195.61C93.07 194.48 98.93 192.66 105.21 189.37L105.22 189.36ZM63.5 206.93C67.2 211.16 70.8 213.81 74.8 215.81C84.71 220.76 95.16 222.77 106.22 221.01C113.54 219.84 120.37 217.48 126.6 213.38C136.07 207.16 143.49 198.92 150.08 189.85C150.71 188.98 151.02 187.87 151.83 186.1C145.42 186.77 139.54 186.08 134.06 188.13C126.43 190.98 118.9 194.12 111.5 197.53C97.84 203.82 83.64 207.34 68.55 206.93C67.24 206.9 65.92 206.93 63.5 206.93Z" fill="#D14D72"/>
<path d="M324.58 95.48C323.68 97.95 323.18 99.27 322.71 100.61C319.97 108.43 315.52 115.23 309.85 121.18C308.11 123.01 305.58 124.29 303.18 125.25C300.67 126.25 299.08 124.97 298.68 122.29C298.21 119.15 299.7 116.84 301.93 114.87C308.39 109.16 312.29 101.81 314.47 93.68C318.13 79.98 315.31 67.34 307.15 55.81C301.86 48.34 294.89 42.75 287.32 37.8C268.24 25.32 247.25 17.64 224.98 13.39C218.15 12.09 211.14 11.77 204.22 10.93C202.26 10.69 200.24 10.46 198.4 9.80002C196.55 9.13002 195.56 7.51002 195.81 5.42002C196.08 3.21002 197.24 1.55002 199.49 1.27002C201.79 0.980016 204.16 0.910016 206.46 1.15002C229.57 3.60002 252.05 8.41001 273.16 18.63C285.52 24.61 297.17 31.66 307.5 40.67C318.75 50.49 326.79 62.6 331.42 76.89C334.92 87.69 335.67 98.86 334.54 109.97C332.51 129.94 322.47 145.22 305.4 155.83C305.12 156.01 304.85 156.22 304.55 156.36C301.79 157.66 299.11 157.23 297.82 155.3C296.24 152.93 296.67 150.37 299.24 148.27C301.82 146.17 304.65 144.39 307.2 142.26C317.38 133.78 323.19 122.9 324.69 109.74C325.07 106.44 325.34 103.13 325.49 99.81C325.54 98.76 325.06 97.69 324.56 95.48H324.58Z" fill="#D14D72"/>
<path d="M236.6 133.08C240.05 135.47 243.15 138.79 247.38 137.8C250.91 136.98 254.15 134.88 257.72 133.26C259.17 134.19 258.98 135.67 258.03 136.92C257.05 138.22 255.84 139.45 254.49 140.35C249.62 143.61 240.02 142.22 236.1 137.82C234.75 136.31 233.94 134.79 236.6 133.07V133.08Z" fill="#D14D72"/>
<path d="M242.11 125.62C238.4 122.64 234.94 122.95 231.6 125.17C230.06 122.56 231 120.92 232.7 119.65C234.84 118.05 237.22 117.61 239.69 118.98C241.87 120.2 243.3 121.79 242.11 125.62Z" fill="#D14D72"/>
<path d="M262.79 124.74C260.79 123.75 259.23 122.98 257.4 122.08C256.09 122.68 254.64 123.34 253.09 124.04C251.01 122.51 251.68 120.92 252.92 119.46C254.44 117.66 258.26 117.28 260.74 118.54C262.98 119.67 263.51 120.99 262.79 124.75V124.74Z" fill="#D14D72"/>
</g>
<defs>
<clipPath id="clip0_18_30">
<rect width="335.04" height="242.78" fill="white"/>
</clipPath>
</defs>
</svg>
